# xmcd
#
# Track frame offsets: 
#        150
#        24547
#        54975
#        78706
#        97382
#        137100
#        172437
#        204303
#        209792
#
# Disc length: 3182 seconds
#
# Revision: 0
# Processed by: cddbd v1.5.2PL0 Copyright (c) Steve Scherf et al.
# Submitted via: ExactAudioCopy v0.99pb5
#
DISCID=8e0c6c09
DTITLE=Deep Purple  - State Of Love And Trust (Bootleg) - Disc 2
DYEAR=1900
DGENRE=
TTITLE0=Don Airey Solo
TTITLE1=Perfect Strangers With Jon Lord
TTITLE2=Space Truckin'
TTITLE3=Steve and Yngwie Guitar Solo
TTITLE4=Smoke On The Water (Jon Lord and Yngwie Malmsteen)
TTITLE5=Hush and Drum Solo
TTITLE6=Black Night
TTITLE7=Outro
TTITLE8=Woman From Tokyo (08.04.2009)
EXTD=
EXTT0=
EXTT1=
EXTT2=
EXTT3=
EXTT4=
EXTT5=
EXTT6=
EXTT7=
EXTT8=
PLAYORDER=
